<svg width="306" height="49" viewBox="0 0 306 49" fill="none" xmlns="http://www.w3.org/2000/svg">
<path d="M5.96138 37.3906C4.90538 37.3906 3.92938 37.1346 3.03338 36.6226C2.16938 36.1106 1.48138 35.4226 0.969375 34.5586C0.457375 33.6626 0.201375 32.6866 0.201375 31.6306V8.59062C0.201375 7.53462 0.457375 6.57462 0.969375 5.71062C1.48138 4.81462 2.16938 4.11062 3.03338 3.59862C3.92938 3.08662 4.90538 2.83062 5.96138 2.83062H29.0014C30.0574 2.83062 31.0174 3.08662 31.8814 3.59862C32.7774 4.11062 33.4814 4.81462 33.9934 5.71062C34.5054 6.57462 34.7614 7.53462 34.7614 8.59062V31.6306C34.7614 32.6866 34.5054 33.6626 33.9934 34.5586C33.4814 35.4226 32.7774 36.1106 31.8814 36.6226C31.0174 37.1346 30.0574 37.3906 29.0014 37.3906H5.96138ZM5.96138 33.5026H29.0014C29.5134 33.5026 29.9454 33.3266 30.2974 32.9746C30.6814 32.5906 30.8734 32.1426 30.8734 31.6306V8.59062C30.8734 8.07862 30.6814 7.64662 30.2974 7.29462C29.9454 6.91062 29.5134 6.71862 29.0014 6.71862H5.96138C5.44938 6.71862 5.00138 6.91062 4.61738 7.29462C4.26538 7.64662 4.08938 8.07862 4.08938 8.59062V31.6306C4.08938 32.1426 4.26538 32.5906 4.61738 32.9746C5.00138 33.3266 5.44938 33.5026 5.96138 33.5026ZM39.9514 48.4306V9.55062H62.5114C63.5674 9.55062 64.5274 9.82262 65.3914 10.3666C66.2874 10.8786 66.9914 11.5826 67.5034 12.4786C68.0474 13.3426 68.3194 14.3026 68.3194 15.3586V31.5826C68.3194 32.6386 68.0474 33.6146 67.5034 34.5106C66.9914 35.3746 66.2874 36.0786 65.3914 36.6226C64.5274 37.1346 63.5674 37.3906 62.5114 37.3906H43.8874V48.4306H39.9514ZM45.8074 33.4546H62.5114C63.0234 33.4546 63.4554 33.2786 63.8074 32.9266C64.1914 32.5426 64.3834 32.0946 64.3834 31.5826V15.3586C64.3834 14.8466 64.1914 14.4146 63.8074 14.0626C63.4554 13.6786 63.0234 13.4866 62.5114 13.4866H45.8074C45.2954 13.4866 44.8474 13.6786 44.4634 14.0626C44.0794 14.4146 43.8874 14.8466 43.8874 15.3586V31.5826C43.8874 32.0946 44.0794 32.5426 44.4634 32.9266C44.8474 33.2786 45.2954 33.4546 45.8074 33.4546ZM77.4904 37.3906C76.4344 37.3906 75.4584 37.1346 74.5624 36.6226C73.6984 36.0786 72.9944 35.3746 72.4504 34.5106C71.9384 33.6146 71.6824 32.6386 71.6824 31.5826V15.3586C71.6824 14.3026 71.9384 13.3426 72.4504 12.4786C72.9944 11.5826 73.6984 10.8786 74.5624 10.3666C75.4584 9.82262 76.4344 9.55062 77.4904 9.55062H94.1944C95.2824 9.55062 96.2584 9.82262 97.1224 10.3666C98.0184 10.8786 98.7224 11.5826 99.2344 12.4786C99.7784 13.3426 100.05 14.3026 100.05 15.3586V25.4386H75.6184V31.5826C75.6184 32.0946 75.7944 32.5426 76.1464 32.9266C76.5304 33.2786 76.9784 33.4546 77.4904 33.4546H100.05V37.3906H77.4904ZM75.6184 21.5026H96.0664V15.3586C96.0664 14.8466 95.8744 14.4146 95.4904 14.0626C95.1384 13.6786 94.7064 13.4866 94.1944 13.4866H77.4904C76.9784 13.4866 76.5304 13.6786 76.1464 14.0626C75.7944 14.4146 75.6184 14.8466 75.6184 15.3586V21.5026ZM105.061 37.3906V9.55062H127.621C128.677 9.55062 129.637 9.82262 130.501 10.3666C131.397 10.8786 132.101 11.5826 132.613 12.4786C133.157 13.3426 133.429 14.3026 133.429 15.3586V37.3906H129.493V15.3586C129.493 14.8466 129.301 14.4146 128.917 14.0626C128.565 13.6786 128.133 13.4866 127.621 13.4866H110.917C110.405 13.4866 109.957 13.6786 109.573 14.0626C109.189 14.4146 108.997 14.8466 108.997 15.3586V37.3906H105.061ZM163.225 37.3906L150.649 2.83062H154.777L164.905 30.5746L174.985 2.83062H179.689L189.817 30.5746L199.849 2.83062H204.073L191.497 37.3906H188.089L177.337 7.87062L166.585 37.3906H163.225ZM212.584 37.3906C211.528 37.3906 210.552 37.1346 209.656 36.6226C208.792 36.0786 208.088 35.3746 207.544 34.5106C207.032 33.6146 206.776 32.6386 206.776 31.5826V15.3586C206.776 14.3026 207.032 13.3426 207.544 12.4786C208.088 11.5826 208.792 10.8786 209.656 10.3666C210.552 9.82262 211.528 9.55062 212.584 9.55062H229.288C230.376 9.55062 231.352 9.82262 232.216 10.3666C233.112 10.8786 233.816 11.5826 234.328 12.4786C234.872 13.3426 235.144 14.3026 235.144 15.3586V31.5826C235.144 32.6386 234.872 33.6146 234.328 34.5106C233.816 35.3746 233.112 36.0786 232.216 36.6226C231.352 37.1346 230.376 37.3906 229.288 37.3906H212.584ZM212.584 33.4546H229.288C229.8 33.4546 230.232 33.2786 230.584 32.9266C230.968 32.5426 231.16 32.0946 231.16 31.5826V15.3586C231.16 14.8466 230.968 14.4146 230.584 14.0626C230.232 13.6786 229.8 13.4866 229.288 13.4866H212.584C212.072 13.4866 211.624 13.6786 211.24 14.0626C210.888 14.4146 210.712 14.8466 210.712 15.3586V31.5826C210.712 32.0946 210.888 32.5426 211.24 32.9266C211.624 33.2786 212.072 33.4546 212.584 33.4546ZM239.59 37.3906V15.3586C239.59 14.3026 239.846 13.3426 240.358 12.4786C240.902 11.5826 241.606 10.8786 242.47 10.3666C243.366 9.82262 244.342 9.55062 245.398 9.55062H261.046V13.4866H245.398C244.886 13.4866 244.438 13.6786 244.054 14.0626C243.702 14.4146 243.526 14.8466 243.526 15.3586V37.3906H239.59ZM269.96 37.3906C268.904 37.3906 267.928 37.1346 267.032 36.6226C266.168 36.0786 265.464 35.3746 264.92 34.5106C264.408 33.6146 264.152 32.6386 264.152 31.5826V0.430623H268.088V31.5826C268.088 32.0946 268.264 32.5426 268.616 32.9266C269 33.2786 269.448 33.4546 269.96 33.4546H274.664V37.3906H269.96ZM283.335 37.3906C282.247 37.3906 281.255 37.1346 280.359 36.6226C279.495 36.0786 278.791 35.3746 278.247 34.5106C277.735 33.6146 277.479 32.6386 277.479 31.5826V15.3586C277.479 14.3026 277.735 13.3426 278.247 12.4786C278.791 11.5826 279.495 10.8786 280.359 10.3666C281.255 9.82262 282.247 9.55062 283.335 9.55062H301.911V0.430623H305.847V37.3906H283.335ZM283.335 33.4546H300.039C300.551 33.4546 300.983 33.2786 301.335 32.9266C301.719 32.5426 301.911 32.0946 301.911 31.5826V15.3586C301.911 14.8466 301.719 14.4146 301.335 14.0626C300.983 13.6786 300.551 13.4866 300.039 13.4866H283.335C282.823 13.4866 282.375 13.6786 281.991 14.0626C281.639 14.4146 281.463 14.8466 281.463 15.3586V31.5826C281.463 32.0946 281.639 32.5426 281.991 32.9266C282.375 33.2786 282.823 33.4546 283.335 33.4546Z" fill="white"/>
</svg>
