<svg width="324" height="38" viewBox="0 0 324 38" fill="none" xmlns="http://www.w3.org/2000/svg">
<path d="M6.21581 37.3906C5.15981 37.3906 4.18381 37.1346 3.28781 36.6226C2.42381 36.1106 1.73581 35.4226 1.22381 34.5586C0.711813 33.6626 0.455813 32.6866 0.455813 31.6306V30.2866H4.34381V31.6306C4.34381 32.1426 4.51981 32.5906 4.87181 32.9746C5.25581 33.3266 5.70381 33.5026 6.21581 33.5026H29.2558C29.7678 33.5026 30.1998 33.3266 30.5518 32.9746C30.9358 32.5906 31.1278 32.1426 31.1278 31.6306V23.9026C31.1278 23.3906 30.9358 22.9586 30.5518 22.6066C30.1998 22.2546 29.7678 22.0786 29.2558 22.0786H6.21581C5.15981 22.0786 4.18381 21.8226 3.28781 21.3106C2.42381 20.7666 1.73581 20.0626 1.22381 19.1986C0.711813 18.3346 0.455813 17.3746 0.455813 16.3186V8.59062C0.455813 7.53462 0.711813 6.57462 1.22381 5.71062C1.73581 4.81462 2.42381 4.11062 3.28781 3.59862C4.18381 3.08662 5.15981 2.83062 6.21581 2.83062H29.2558C30.3118 2.83062 31.2718 3.08662 32.1358 3.59862C33.0318 4.11062 33.7358 4.81462 34.2478 5.71062C34.7598 6.57462 35.0158 7.53462 35.0158 8.59062V9.93462H31.1278V8.59062C31.1278 8.07862 30.9358 7.64662 30.5518 7.29462C30.1998 6.91062 29.7678 6.71862 29.2558 6.71862H6.21581C5.70381 6.71862 5.25581 6.91062 4.87181 7.29462C4.51981 7.64662 4.34381 8.07862 4.34381 8.59062V16.3186C4.34381 16.8306 4.51981 17.2626 4.87181 17.6146C5.25581 17.9666 5.70381 18.1426 6.21581 18.1426H29.2558C30.3118 18.1426 31.2718 18.4146 32.1358 18.9586C33.0318 19.4706 33.7358 20.1586 34.2478 21.0226C34.7598 21.8866 35.0158 22.8466 35.0158 23.9026V31.6306C35.0158 32.6866 34.7598 33.6626 34.2478 34.5586C33.7358 35.4226 33.0318 36.1106 32.1358 36.6226C31.2718 37.1346 30.3118 37.3906 29.2558 37.3906H6.21581ZM40.0686 37.3906V9.55062H76.8366C77.9246 9.55062 78.9006 9.82262 79.7646 10.3666C80.6606 10.8786 81.3646 11.5826 81.8766 12.4786C82.3886 13.3426 82.6446 14.3026 82.6446 15.3586V37.3906H78.7566V15.3586C78.7566 14.8466 78.5646 14.4146 78.1806 14.0626C77.7966 13.6786 77.3486 13.4866 76.8366 13.4866H65.2686C64.7566 13.4866 64.3086 13.6786 63.9246 14.0626C63.5726 14.4146 63.3966 14.8466 63.3966 15.3586V37.3906H59.4126V15.3586C59.4126 14.8466 59.2206 14.4146 58.8366 14.0626C58.4846 13.6786 58.0526 13.4866 57.5406 13.4866H45.9246C45.4126 13.4866 44.9646 13.6786 44.5806 14.0626C44.2286 14.4146 44.0526 14.8466 44.0526 15.3586V37.3906H40.0686ZM92.6544 37.3906C91.5984 37.3906 90.6224 37.1346 89.7264 36.6226C88.8624 36.0786 88.1584 35.3746 87.6144 34.5106C87.1024 33.6146 86.8464 32.6386 86.8464 31.5826V15.3586C86.8464 14.3026 87.1024 13.3426 87.6144 12.4786C88.1584 11.5826 88.8624 10.8786 89.7264 10.3666C90.6224 9.82262 91.5984 9.55062 92.6544 9.55062H109.358C110.446 9.55062 111.422 9.82262 112.286 10.3666C113.182 10.8786 113.886 11.5826 114.398 12.4786C114.942 13.3426 115.214 14.3026 115.214 15.3586V31.5826C115.214 32.6386 114.942 33.6146 114.398 34.5106C113.886 35.3746 113.182 36.0786 112.286 36.6226C111.422 37.1346 110.446 37.3906 109.358 37.3906H92.6544ZM92.6544 33.4546H109.358C109.87 33.4546 110.302 33.2786 110.654 32.9266C111.038 32.5426 111.23 32.0946 111.23 31.5826V15.3586C111.23 14.8466 111.038 14.4146 110.654 14.0626C110.302 13.6786 109.87 13.4866 109.358 13.4866H92.6544C92.1424 13.4866 91.6944 13.6786 91.3104 14.0626C90.9584 14.4146 90.7824 14.8466 90.7824 15.3586V31.5826C90.7824 32.0946 90.9584 32.5426 91.3104 32.9266C91.6944 33.2786 92.1424 33.4546 92.6544 33.4546ZM124.951 37.3906C123.895 37.3906 122.919 37.1346 122.023 36.6226C121.159 36.0786 120.455 35.3746 119.911 34.5106C119.399 33.6146 119.143 32.6386 119.143 31.5826V15.3586C119.143 14.3026 119.399 13.3426 119.911 12.4786C120.455 11.5826 121.159 10.8786 122.023 10.3666C122.919 9.82262 123.895 9.55062 124.951 9.55062H141.655C142.743 9.55062 143.719 9.82262 144.583 10.3666C145.479 10.8786 146.183 11.5826 146.695 12.4786C147.239 13.3426 147.511 14.3026 147.511 15.3586V31.5826C147.511 32.6386 147.239 33.6146 146.695 34.5106C146.183 35.3746 145.479 36.0786 144.583 36.6226C143.719 37.1346 142.743 37.3906 141.655 37.3906H124.951ZM124.951 33.4546H141.655C142.167 33.4546 142.599 33.2786 142.951 32.9266C143.335 32.5426 143.527 32.0946 143.527 31.5826V15.3586C143.527 14.8466 143.335 14.4146 142.951 14.0626C142.599 13.6786 142.167 13.4866 141.655 13.4866H124.951C124.439 13.4866 123.991 13.6786 123.607 14.0626C123.255 14.4146 123.079 14.8466 123.079 15.3586V31.5826C123.079 32.0946 123.255 32.5426 123.607 32.9266C123.991 33.2786 124.439 33.4546 124.951 33.4546ZM157.157 37.3906C156.069 37.3906 155.077 37.1346 154.181 36.6226C153.317 36.0786 152.629 35.3746 152.117 34.5106C151.605 33.6146 151.349 32.6386 151.349 31.5826V0.430623H155.285V9.55062H167.333V13.4866H155.285V31.5826C155.285 32.0946 155.461 32.5426 155.813 32.9266C156.197 33.2786 156.645 33.4546 157.157 33.4546H167.333V37.3906H157.157ZM171.319 37.3906V0.430623H175.255V9.55062H193.879C194.935 9.55062 195.895 9.82262 196.759 10.3666C197.655 10.8786 198.359 11.5826 198.871 12.4786C199.415 13.3426 199.687 14.3026 199.687 15.3586V37.3906H195.751V15.3586C195.751 14.8466 195.559 14.4146 195.175 14.0626C194.823 13.6786 194.391 13.4866 193.879 13.4866H177.175C176.663 13.4866 176.215 13.6786 175.831 14.0626C175.447 14.4146 175.255 14.8466 175.255 15.3586V37.3906H171.319ZM216.651 37.3906V2.83062H248.187V6.71862H220.539V18.1426H242.763V22.0786H220.539V37.3906H216.651ZM251.243 37.3906V2.87862H280.043C281.099 2.87862 282.059 3.15062 282.923 3.69462C283.819 4.20662 284.523 4.89462 285.035 5.75862C285.547 6.62262 285.803 7.58262 285.803 8.63862V18.7666C285.803 19.8226 285.547 20.7826 285.035 21.6466C284.523 22.5106 283.819 23.2146 282.923 23.7586C282.059 24.2706 281.099 24.5266 280.043 24.5266H255.131V37.3906H251.243ZM257.003 20.5906H280.043C280.555 20.5906 280.987 20.4146 281.339 20.0626C281.723 19.7106 281.915 19.2786 281.915 18.7666V8.63862C281.915 8.12662 281.723 7.69462 281.339 7.34262C280.987 6.95862 280.555 6.76662 280.043 6.76662H257.003C256.491 6.76662 256.043 6.95862 255.659 7.34262C255.307 7.69462 255.131 8.12662 255.131 8.63862V18.7666C255.131 19.2786 255.307 19.7106 255.659 20.0626C256.043 20.4146 256.491 20.5906 257.003 20.5906ZM294.731 37.3906C293.675 37.3906 292.699 37.1346 291.803 36.6226C290.939 36.1106 290.251 35.4226 289.739 34.5586C289.227 33.6626 288.971 32.6866 288.971 31.6306V30.2866H292.859V31.6306C292.859 32.1426 293.035 32.5906 293.387 32.9746C293.771 33.3266 294.219 33.5026 294.731 33.5026H317.771C318.283 33.5026 318.715 33.3266 319.067 32.9746C319.451 32.5906 319.643 32.1426 319.643 31.6306V23.9026C319.643 23.3906 319.451 22.9586 319.067 22.6066C318.715 22.2546 318.283 22.0786 317.771 22.0786H294.731C293.675 22.0786 292.699 21.8226 291.803 21.3106C290.939 20.7666 290.251 20.0626 289.739 19.1986C289.227 18.3346 288.971 17.3746 288.971 16.3186V8.59062C288.971 7.53462 289.227 6.57462 289.739 5.71062C290.251 4.81462 290.939 4.11062 291.803 3.59862C292.699 3.08662 293.675 2.83062 294.731 2.83062H317.771C318.827 2.83062 319.787 3.08662 320.651 3.59862C321.547 4.11062 322.251 4.81462 322.763 5.71062C323.275 6.57462 323.531 7.53462 323.531 8.59062V9.93462H319.643V8.59062C319.643 8.07862 319.451 7.64662 319.067 7.29462C318.715 6.91062 318.283 6.71862 317.771 6.71862H294.731C294.219 6.71862 293.771 6.91062 293.387 7.29462C293.035 7.64662 292.859 8.07862 292.859 8.59062V16.3186C292.859 16.8306 293.035 17.2626 293.387 17.6146C293.771 17.9666 294.219 18.1426 294.731 18.1426H317.771C318.827 18.1426 319.787 18.4146 320.651 18.9586C321.547 19.4706 322.251 20.1586 322.763 21.0226C323.275 21.8866 323.531 22.8466 323.531 23.9026V31.6306C323.531 32.6866 323.275 33.6626 322.763 34.5586C322.251 35.4226 321.547 36.1106 320.651 36.6226C319.787 37.1346 318.827 37.3906 317.771 37.3906H294.731Z" fill="white"/>
</svg>
