<svg width="288" height="49" viewBox="0 0 288 49" fill="none" xmlns="http://www.w3.org/2000/svg">
<path d="M0.797375 37.3906V2.83062H6.12538L20.4774 19.9186L34.8294 2.83062H40.1574V37.3906H36.2694V7.24662L20.4774 26.0146L4.68538 7.24662V37.3906H0.797375ZM50.9926 37.3906C49.9366 37.3906 48.9606 37.1346 48.0646 36.6226C47.2006 36.0786 46.4966 35.3746 45.9526 34.5106C45.4406 33.6146 45.1846 32.6386 45.1846 31.5826V9.55062H49.1206V31.5826C49.1206 32.0946 49.2966 32.5426 49.6486 32.9266C50.0326 33.2786 50.4806 33.4546 50.9926 33.4546H67.6966C68.2086 33.4546 68.6566 33.2786 69.0406 32.9266C69.4246 32.5426 69.6166 32.0946 69.6166 31.5826V9.55062H73.5526V31.5826C73.5526 32.6386 73.2806 33.6146 72.7366 34.5106C72.2246 35.3746 71.5206 36.0786 70.6246 36.6226C69.7606 37.1346 68.7846 37.3906 67.6966 37.3906H50.9926ZM84.3196 37.3906C83.2636 37.3906 82.2876 37.1346 81.3916 36.6226C80.5276 36.0786 79.8236 35.3746 79.2796 34.5106C78.7676 33.6146 78.5116 32.6386 78.5116 31.5826V0.430623H82.4476V31.5826C82.4476 32.0946 82.6236 32.5426 82.9756 32.9266C83.3596 33.2786 83.8076 33.4546 84.3196 33.4546H89.0236V37.3906H84.3196ZM98.852 37.3906C97.764 37.3906 96.772 37.1346 95.876 36.6226C95.012 36.0786 94.324 35.3746 93.812 34.5106C93.3 33.6146 93.044 32.6386 93.044 31.5826V0.430623H96.98V9.55062H109.028V13.4866H96.98V31.5826C96.98 32.0946 97.156 32.5426 97.508 32.9266C97.892 33.2786 98.34 33.4546 98.852 33.4546H109.028V37.3906H98.852ZM112.918 37.3906V9.55062H116.854V37.3906H112.918ZM112.918 4.36662V0.430623H116.854V4.36662H112.918ZM121.78 48.4306V9.55062H144.34C145.396 9.55062 146.356 9.82262 147.22 10.3666C148.116 10.8786 148.82 11.5826 149.332 12.4786C149.876 13.3426 150.148 14.3026 150.148 15.3586V31.5826C150.148 32.6386 149.876 33.6146 149.332 34.5106C148.82 35.3746 148.116 36.0786 147.22 36.6226C146.356 37.1346 145.396 37.3906 144.34 37.3906H125.716V48.4306H121.78ZM127.636 33.4546H144.34C144.852 33.4546 145.284 33.2786 145.635 32.9266C146.02 32.5426 146.212 32.0946 146.212 31.5826V15.3586C146.212 14.8466 146.02 14.4146 145.635 14.0626C145.284 13.6786 144.852 13.4866 144.34 13.4866H127.636C127.124 13.4866 126.676 13.6786 126.292 14.0626C125.908 14.4146 125.716 14.8466 125.716 15.3586V31.5826C125.716 32.0946 125.908 32.5426 126.292 32.9266C126.676 33.2786 127.124 33.4546 127.636 33.4546ZM159.367 37.3906C158.311 37.3906 157.335 37.1346 156.439 36.6226C155.575 36.0786 154.871 35.3746 154.327 34.5106C153.815 33.6146 153.559 32.6386 153.559 31.5826V0.430623H157.495V31.5826C157.495 32.0946 157.671 32.5426 158.023 32.9266C158.407 33.2786 158.855 33.4546 159.367 33.4546H164.071V37.3906H159.367ZM173.382 37.3906C172.326 37.3906 171.35 37.1346 170.454 36.6226C169.59 36.0786 168.886 35.3746 168.342 34.5106C167.83 33.6146 167.574 32.6386 167.574 31.5826V21.5026H191.958V15.3586C191.958 14.8466 191.766 14.4146 191.382 14.0626C191.03 13.6786 190.598 13.4866 190.086 13.4866H167.574V9.55062H190.086C191.174 9.55062 192.15 9.82262 193.014 10.3666C193.91 10.8786 194.614 11.5826 195.126 12.4786C195.67 13.3426 195.942 14.3026 195.942 15.3586V37.3906H173.382ZM173.382 33.4546H191.958V25.4386H171.51V31.5826C171.51 32.0946 171.686 32.5426 172.038 32.9266C172.422 33.2786 172.87 33.4546 173.382 33.4546ZM205.558 48.4306V44.4466H222.934C223.446 44.4466 223.878 44.2546 224.23 43.8706C224.614 43.5186 224.806 43.0866 224.806 42.5746V37.3906H206.23C205.174 37.3906 204.198 37.1346 203.302 36.6226C202.438 36.0786 201.734 35.3746 201.19 34.5106C200.678 33.6146 200.422 32.6386 200.422 31.5826V9.64662H204.358V31.5826C204.358 32.0946 204.534 32.5426 204.886 32.9266C205.27 33.2786 205.718 33.4546 206.23 33.4546H222.934C223.446 33.4546 223.878 33.2786 224.23 32.9266C224.614 32.5426 224.806 32.0946 224.806 31.5826V9.64662H228.742V42.5746C228.742 43.6626 228.486 44.6386 227.974 45.5026C227.462 46.3986 226.758 47.1026 225.862 47.6146C224.998 48.1586 224.022 48.4306 222.934 48.4306H205.558ZM238.584 37.3906C237.528 37.3906 236.552 37.1346 235.656 36.6226C234.792 36.0786 234.088 35.3746 233.544 34.5106C233.032 33.6146 232.776 32.6386 232.776 31.5826V15.3586C232.776 14.3026 233.032 13.3426 233.544 12.4786C234.088 11.5826 234.792 10.8786 235.656 10.3666C236.552 9.82262 237.528 9.55062 238.584 9.55062H255.288C256.376 9.55062 257.352 9.82262 258.216 10.3666C259.112 10.8786 259.816 11.5826 260.328 12.4786C260.872 13.3426 261.144 14.3026 261.144 15.3586V25.4386H236.712V31.5826C236.712 32.0946 236.888 32.5426 237.24 32.9266C237.624 33.2786 238.072 33.4546 238.584 33.4546H261.144V37.3906H238.584ZM236.712 21.5026H257.16V15.3586C257.16 14.8466 256.968 14.4146 256.584 14.0626C256.232 13.6786 255.8 13.4866 255.288 13.4866H238.584C238.072 13.4866 237.624 13.6786 237.24 14.0626C236.888 14.4146 236.712 14.8466 236.712 15.3586V21.5026ZM265.824 37.3906V15.3586C265.824 14.3026 266.08 13.3426 266.592 12.4786C267.136 11.5826 267.84 10.8786 268.704 10.3666C269.6 9.82262 270.576 9.55062 271.632 9.55062H287.28V13.4866H271.632C271.12 13.4866 270.672 13.6786 270.288 14.0626C269.936 14.4146 269.76 14.8466 269.76 15.3586V37.3906H265.824Z" fill="white"/>
</svg>
